<?xml version="1.0" encoding="UTF-8" standalone="no"?>
<svg
   xmlns:dc="http://purl.org/dc/elements/1.1/"
   xmlns:cc="http://creativecommons.org/ns#"
   xmlns:rdf="http://www.w3.org/1999/02/22-rdf-syntax-ns#"
   xmlns:svg="http://www.w3.org/2000/svg"
   xmlns="http://www.w3.org/2000/svg"
   version="1.1"
   id="svg2"
   viewBox="0 0 500.00001 300"
   height="300"
   width="500">
  <defs
     id="defs4" />
  <metadata
     id="metadata7">
    <rdf:RDF>
      <cc:Work
         rdf:about="">
        <dc:format>image/svg+xml</dc:format>
        <dc:type
           rdf:resource="http://purl.org/dc/dcmitype/StillImage" />
        <dc:title></dc:title>
      </cc:Work>
    </rdf:RDF>
  </metadata>
  <g
     transform="translate(0,-752.36)"
     id="layer1">
    <g
       transform="matrix(1.3934238,0,0,1.3934238,-117.63236,-265.4008)"
       id="g4147">
      <path
         style="fill:none;fill-rule:evenodd;stroke:#000000;stroke-width:1px;stroke-linecap:butt;stroke-linejoin:miter;stroke-opacity:1"
         d="m 161.46875,347.4668 a 26.728035,26.728035 0 0 0 0.34961,-2.30469 26.728035,26.728035 0 0 0 0.13281,-2.66992 26.728035,26.728035 0 0 0 -0.0664,-1.89063 26.728035,26.728035 0 0 0 -0.32227,-2.65234 26.728035,26.728035 0 0 0 -0.58594,-2.60547 26.728035,26.728035 0 0 0 -0.84179,-2.53516 26.728035,26.728035 0 0 0 -1.0918,-2.43945 26.728035,26.728035 0 0 0 -1.33008,-2.31836 26.728035,26.728035 0 0 0 -1.34766,-1.88672 l -45.24804,21.30274 50.35156,0 z"
         id="path4145"
         transform="translate(0,552.36216)" />
      <path
         style="fill:none;fill-rule:evenodd;stroke:#000000;stroke-width:1px;stroke-linecap:butt;stroke-linejoin:miter;stroke-opacity:1"
         d="M 405.07031,209.07617 156.36523,326.16406 a 26.728035,26.728035 0 0 1 1.34766,1.88672 26.728035,26.728035 0 0 1 1.33008,2.31836 26.728035,26.728035 0 0 1 1.0918,2.43945 26.728035,26.728035 0 0 1 0.84179,2.53516 26.728035,26.728035 0 0 1 0.58594,2.60547 26.728035,26.728035 0 0 1 0.32227,2.65234 26.728035,26.728035 0 0 1 0.0664,1.89063 26.728035,26.728035 0 0 1 -0.13281,2.66992 26.728035,26.728035 0 0 1 -0.34961,2.30469 l 243.60156,0 0,-138.39063 z"
         id="path4136"
         transform="translate(0,552.36216)" />
    </g>
    <text
       transform="matrix(0,1,-1,0,0,0)"
       id="text4151"
       y="-460.44882"
       x="860.80011"
       style="font-style:normal;font-variant:normal;font-weight:bold;font-stretch:normal;font-size:69.67118835px;line-height:125%;font-family:sans-serif;-inkscape-font-specification:'sans-serif, Bold';text-align:start;letter-spacing:0px;word-spacing:0px;writing-mode:lr-tb;text-anchor:start;fill:#000000;fill-opacity:1;stroke:none;stroke-width:1px;stroke-linecap:butt;stroke-linejoin:miter;stroke-opacity:1"
       xml:space="preserve"><tspan
         style="font-style:normal;font-variant:normal;font-weight:bold;font-stretch:normal;font-size:17.41779709px;line-height:125%;font-family:'Devanagari Sangam MN';-inkscape-font-specification:'Devanagari Sangam MN, Bold';text-align:start;writing-mode:lr-tb;text-anchor:start"
         y="-460.44882"
         x="860.80011"
         id="tspan4153">Opposite</tspan></text>
    <text
       id="text4155"
       y="1010.8788"
       x="224.4073"
       style="font-style:normal;font-variant:normal;font-weight:bold;font-stretch:normal;font-size:17.41779709px;line-height:125%;font-family:'Devanagari Sangam MN';-inkscape-font-specification:'Devanagari Sangam MN, Bold';text-align:start;letter-spacing:0px;word-spacing:0px;writing-mode:lr-tb;text-anchor:start;fill:#000000;fill-opacity:1;stroke:none;stroke-width:1px;stroke-linecap:butt;stroke-linejoin:miter;stroke-opacity:1"
       xml:space="preserve"><tspan
         y="1010.8788"
         x="224.4073"
         id="tspan4157">Adjacent</tspan></text>
    <text
       id="text4159"
       y="973.36548"
       x="117.96245"
       style="font-style:normal;font-variant:normal;font-weight:600;font-stretch:normal;font-size:17.41779709px;line-height:125%;font-family:'.Aqua Kana';-inkscape-font-specification:'.Aqua Kana, Semi-Bold';text-align:start;letter-spacing:0px;word-spacing:0px;writing-mode:lr-tb;text-anchor:start;fill:#000000;fill-opacity:1;stroke:none;stroke-width:1px;stroke-linecap:butt;stroke-linejoin:miter;stroke-opacity:1"
       xml:space="preserve"><tspan
         y="973.36548"
         x="117.96245"
         id="tspan4161">θ</tspan></text>
  </g>
</svg>
