<?xml version="1.0" encoding="utf-8"?>
<!-- Generator: Adobe Illustrator 16.0.0, SVG Export Plug-In . SVG Version: 6.00 Build 0)  -->
<!DOCTYPE svg PUBLIC "-//W3C//DTD SVG 1.1//EN" "http://www.w3.org/Graphics/SVG/1.1/DTD/svg11.dtd">
<svg version="1.1" xmlns="http://www.w3.org/2000/svg" xmlns:xlink="http://www.w3.org/1999/xlink" x="0px" y="0px" width="1000px"
	 height="1000px" viewBox="0 0 1000 1000" enable-background="new 0 0 1000 1000" xml:space="preserve">
<g id="Layer_3">
</g>
<g id="Layer_1">
	<path d="M321.496,168.781v-10.754c6.415-4.948,10.567-12.687,10.567-21.414c0-14.94-18.598-69.321-27.052-69.321
		c-6.763,0-27.052,54.38-27.052,69.321c0,8.727,4.152,16.465,10.567,21.414v710.235c-32.581,3.898-67.499,20.463-111.481,64.445
		h255.933c-42.767-42.764-79.282-60.115-111.481-64.332V488.633c167.154,80.771,334.306-107.951,501.46-8.856
		c0-106.62,0-213.232,0-319.852C655.802,60.83,488.65,249.552,321.496,168.781z"/>
</g>
<g id="Layer_2">
</g>
</svg>
